# xmcd CD database file
#
# Track frame offsets:
#	150
#	1162
#	28752
#	46749
#	47720
#	68583
#	69764
#	91808
#	109364
#	111368
#	117107
#	118533
#	143231
#	163095
#	166086
#	172085
#	172906
#	197364
#	228632
#	256676
#	260088
#	268309
#	269503
#	286375
#	288332
#	315257
#
# Disc length: 4284 seconds
#
# Revision: 0
# Processed by: cddbd v1.5.2PL0 Copyright (c) Steve Scherf et al.
# Submitted via: CDex 1.70beta2
#
DISCID=6b10ba1a
DTITLE=Camilleri, Andrea - Die Farbe der Sonne
DYEAR=2010
DGENRE=Hoerbuch
TTITLE0=19 Die Farbe der Sonne
TTITLE1=20 Die Farbe der Sonne
TTITLE2=21 Die Farbe der Sonne
TTITLE3=22 Die Farbe der Sonne
TTITLE4=23 Die Farbe der Sonne
TTITLE5=24 Die Farbe der Sonne
TTITLE6=25 Die Farbe der Sonne
TTITLE7=26 Die Farbe der Sonne
TTITLE8=27 Die Farbe der Sonne
TTITLE9=28 Die Farbe der Sonne
TTITLE10=29 Die Farbe der Sonne
TTITLE11=30 Die Farbe der Sonne
TTITLE12=31 Die Farbe der Sonne
TTITLE13=32 Die Farbe der Sonne
TTITLE14=33 Die Farbe der Sonne
TTITLE15=34 Die Farbe der Sonne
TTITLE16=35 Die Farbe der Sonne
TTITLE17=36 Die Farbe der Sonne
TTITLE18=37 Die Farbe der Sonne
TTITLE19=38 Die Farbe der Sonne
TTITLE20=39 Die Farbe der Sonne
TTITLE21=40 Die Farbe der Sonne
TTITLE22=41 Die Farbe der Sonne
TTITLE23=42 Die Farbe der Sonne
TTITLE24=43 Die Farbe der Sonne
TTITLE25=44 Die Farbe der Sonne
EXTD=YEAR: 2010
EXTT0=
EXTT1=
EXTT2=
EXTT3=
EXTT4=
EXTT5=
EXTT6=
EXTT7=
EXTT8=
EXTT9=
EXTT10=
EXTT11=
EXTT12=
EXTT13=
EXTT14=
EXTT15=
EXTT16=
EXTT17=
EXTT18=
EXTT19=
EXTT20=
EXTT21=
EXTT22=
EXTT23=
EXTT24=
EXTT25=
PLAYORDER=
